<svg width="80" height="81" viewBox="0 0 80 81" fill="none" xmlns="http://www.w3.org/2000/svg">
<g clip-path="url(#clip0_1_1274)">
<path d="M79.998 35.743H56.6049L76.8643 24.0461L72.4152 16.3377L52.1559 28.0345L63.8499 7.77672L56.1415 3.32484L44.4474 23.583V0.191406H35.5487V23.5852L23.8499 3.32484L16.144 7.77453L27.8405 28.032L7.58086 16.3377L3.13148 24.0439L23.3909 35.7408H-0.00195312V44.6398H23.3887L3.13148 56.3367L7.58086 64.0452L27.8384 52.3505L16.1415 72.6083L23.8499 77.058L35.5465 56.798V80.1914H44.4452V56.7998L56.1396 77.058L63.8474 72.6083L52.1512 52.3483L72.4105 64.0452L76.8605 56.3367L56.6027 44.642H79.9934V35.743H79.998ZM39.998 52.2945C33.288 52.2945 27.8493 46.8561 27.8493 40.1458C27.8493 33.4355 33.288 27.9967 39.998 27.9967C46.708 27.9967 52.1465 33.4355 52.1465 40.1455C52.1465 46.8558 46.708 52.2945 39.998 52.2945Z" fill="#625DF5"/>
</g>
<defs>
<clipPath id="clip0_1_1274">
<rect width="80" height="80" fill="white" transform="translate(-0.00195312 0.191406)"/>
</clipPath>
</defs>
</svg>
